<svg width="145" height="150" viewBox="0 0 145 150" fill="none" xmlns="http://www.w3.org/2000/svg">
<path d="M0.0322273 149.935V125.685C2.86556 123.852 7.11556 121.102 12.7822 117.435C18.6156 113.768 25.0322 109.685 32.0322 105.185C39.1989 100.685 46.4489 96.1017 53.7822 91.4351C61.1156 86.6017 67.8656 82.1017 74.0322 77.9351C80.3656 73.6017 85.3656 70.0184 89.0322 67.1851C94.3656 63.0184 98.0322 59.0184 100.032 55.1851C102.199 51.1851 103.282 47.2684 103.282 43.4351V38.4351C103.282 34.2684 101.616 30.8517 98.2822 28.1851C94.9489 25.5184 89.4489 24.1851 81.7822 24.1851H74.2822C64.6156 24.1851 54.9489 24.5184 45.2822 25.1851C35.6156 25.8517 26.9489 26.6017 19.2822 27.4351C11.7822 28.1017 6.19889 28.6851 2.53223 29.1851L0.0322273 6.43506C4.69889 5.60172 11.1156 4.68505 19.2822 3.68505C27.4489 2.68505 36.8656 1.85172 47.5322 1.18505C58.1989 0.518383 69.3656 0.185049 81.0322 0.185049H88.0322C98.5322 0.185049 106.949 1.43505 113.282 3.93505C119.616 6.26838 124.449 9.35171 127.782 13.185C131.282 17.0184 133.616 21.2684 134.782 25.9351C135.949 30.4351 136.532 34.8517 136.532 39.1851V44.4351C136.532 53.2684 133.616 61.8517 127.782 70.1851C122.116 78.3517 112.866 86.0184 100.032 93.1851C86.0322 100.852 74.1989 107.352 64.5322 112.685C55.0322 117.852 48.1989 121.602 44.0322 123.935V125.935H144.032V149.935H0.0322273Z" fill="#00034F" fill-opacity="0.1"/>
</svg>
