<svg width="143" height="150" viewBox="0 0 143 150" fill="none" xmlns="http://www.w3.org/2000/svg">
<path d="M48.0742 149.935C35.5742 149.935 25.9909 149.435 19.3242 148.435C12.6576 147.435 7.99089 146.352 5.32422 145.185C2.65755 143.852 0.907553 142.935 0.0742195 142.435L9.82422 123.185C10.8242 123.352 12.8242 123.602 15.8242 123.935C18.8242 124.269 23.4076 124.602 29.5742 124.935C35.9076 125.102 44.4076 125.352 55.0742 125.685C65.7409 125.852 79.1576 125.935 95.3242 125.935C101.491 125.935 106.158 125.102 109.324 123.435C112.491 121.769 114.574 119.602 115.574 116.935C116.741 114.102 117.324 111.185 117.324 108.185V102.185C117.324 97.852 116.158 94.2686 113.824 91.4353C111.491 88.4353 106.908 86.9353 100.074 86.9353H29.0742V64.9353H87.3242C95.1576 64.9353 100.824 63.4353 104.324 60.4353C107.824 57.2686 109.574 53.352 109.574 48.6853V40.9353C109.574 36.2686 108.241 32.352 105.574 29.1853C102.908 26.0186 97.7409 24.4353 90.0742 24.4353H83.0742C74.4076 24.4353 65.3242 24.7686 55.8242 25.4353C46.3242 25.9353 37.4076 26.602 29.0742 27.4353C20.7409 28.102 13.9909 28.7686 8.82422 29.4353L6.32422 6.6853C9.49089 6.1853 15.1576 5.4353 23.3242 4.4353C31.4909 3.4353 41.3242 2.51863 52.8242 1.68529C64.3242 0.851957 76.7409 0.43529 90.0742 0.43529H97.0742C107.241 0.43529 115.324 1.68529 121.324 4.1853C127.324 6.51863 131.824 9.6853 134.824 13.6853C137.991 17.5186 140.074 21.7686 141.074 26.4353C142.074 30.9353 142.574 35.352 142.574 39.6853V43.9353C142.574 51.4353 140.824 57.2686 137.324 61.4353C133.824 65.602 130.574 68.6853 127.574 70.6853C134.908 72.852 140.491 76.602 144.324 81.9353C148.324 87.2686 150.324 93.852 150.324 101.685V107.685C150.324 112.519 149.658 117.435 148.324 122.435C147.158 127.435 144.741 132.019 141.074 136.185C137.408 140.352 132.074 143.685 125.074 146.185C118.074 148.685 108.824 149.935 97.3242 149.935H48.0742Z" fill="#00034F" fill-opacity="0.1"/>
</svg>
