<svg width="151" height="148" viewBox="0 0 151 148" fill="none" xmlns="http://www.w3.org/2000/svg">
<path d="M48.8301 147.685C37.6634 147.685 28.7467 147.185 22.0801 146.185C15.4134 145.185 10.4134 144.101 7.08008 142.935C3.91341 141.601 1.66341 140.685 0.330079 140.185L10.0801 120.935C13.7467 121.268 22.4967 121.851 36.3301 122.685C50.1634 123.351 70.9134 123.685 98.5801 123.685C105.913 123.685 110.997 122.101 113.83 118.935C116.663 115.601 118.08 111.268 118.08 105.935V96.4346C118.08 91.6012 116.663 87.4346 113.83 83.9346C111.163 80.4346 105.997 78.6846 98.3301 78.6846H27.8301L7.83008 81.1846V0.68457H120.83C129.163 0.68457 135.08 1.0179 138.58 1.68456C142.08 2.35123 143.83 3.01789 143.83 3.68456L138.83 24.6846H40.8301V58.9346C42.9967 58.6012 47.3301 58.1846 53.8301 57.6846C60.4967 57.1846 69.4967 56.9346 80.8301 56.9346H100.58C119.247 56.9346 132.33 60.3512 139.83 67.1846C147.33 73.8512 151.08 83.8512 151.08 97.1846V102.935C151.08 108.101 150.663 113.351 149.83 118.685C148.997 123.851 147.163 128.685 144.33 133.185C141.497 137.518 136.997 141.018 130.83 143.685C124.663 146.351 116.247 147.685 105.58 147.685H48.8301Z" fill="#00034F" fill-opacity="0.1"/>
</svg>
