<svg width="142" height="148" viewBox="0 0 142 148" fill="none" xmlns="http://www.w3.org/2000/svg">
<path d="M45.5459 147.701C34.3792 147.701 25.6292 146.118 19.2959 142.951C13.1292 139.785 8.62923 135.785 5.7959 130.951C3.12923 126.118 1.46257 121.201 0.7959 116.201C0.2959 111.201 0.0458999 106.868 0.0458999 103.201V45.4513C0.0458999 42.118 0.2959 37.9513 0.7959 32.9513C1.46257 27.9513 3.12923 23.0346 5.7959 18.2013C8.46257 13.2013 12.8792 9.03462 19.0459 5.70129C25.3792 2.36796 34.2126 0.701294 45.5459 0.701294H91.7959C104.796 0.701294 114.629 1.20129 121.296 2.20129C127.963 3.20129 132.546 4.28462 135.046 5.45129C137.713 6.61795 139.379 7.53462 140.046 8.20129L135.546 27.2013C133.379 26.868 125.213 26.368 111.046 25.7013C96.8792 25.0346 77.3792 24.7013 52.5459 24.7013C44.7126 24.7013 39.4626 26.618 36.7959 30.4513C34.2959 34.118 33.0459 38.118 33.0459 42.4513V58.7013C35.0459 58.368 39.6292 57.9513 46.7959 57.4513C53.9626 56.9513 64.4626 56.7013 78.2959 56.7013H103.046C115.046 56.7013 124.296 58.2013 130.796 61.2013C137.463 64.2013 142.046 68.7013 144.546 74.7013C147.213 80.7013 148.546 88.2013 148.546 97.2013V103.201C148.546 108.201 148.129 113.368 147.296 118.701C146.629 123.868 144.879 128.618 142.046 132.951C139.213 137.285 134.713 140.868 128.546 143.701C122.546 146.368 114.129 147.701 103.296 147.701H45.5459ZM52.5459 123.701H96.0459C101.546 123.701 105.629 122.868 108.296 121.201C111.129 119.368 113.046 117.118 114.046 114.451C115.046 111.618 115.546 108.785 115.546 105.951V93.9513C115.546 89.4513 114.463 85.7846 112.296 82.9513C110.129 80.118 105.463 78.7013 98.2959 78.7013H33.0459V106.201C33.0459 111.035 34.4626 115.201 37.2959 118.701C40.2959 122.035 45.3792 123.701 52.5459 123.701Z" fill="#00034F" fill-opacity="0.1"/>
</svg>
