<svg width="20" height="20" viewBox="0 0 20 20" fill="none" xmlns="http://www.w3.org/2000/svg">
<g id="&#208;&#152;&#208;&#186;&#208;&#190;&#208;&#189;&#208;&#186;&#208;&#184; &#208;&#186;&#208;&#190;&#208;&#189;&#209;&#130;&#208;&#176;&#208;&#186;&#209;&#130;&#208;&#190;&#208;&#178;/ 2. email">
<path id="Vector" d="M18.8236 14.5588C18.8236 14.9456 18.7148 15.3043 18.5404 15.6198L12.9685 9.38566L18.48 4.5636C18.6944 4.90384 18.8236 5.3035 18.8236 5.7354V14.5588ZM10.0001 10.5176L17.6691 3.80736C17.3544 3.63507 17 3.52942 16.6177 3.52942H3.38238C2.99963 3.52942 2.64513 3.63507 2.33169 3.80736L10.0001 10.5176ZM12.1381 10.1116L10.363 11.6659C10.2591 11.7563 10.1298 11.8015 10.0001 11.8015C9.87022 11.8015 9.74093 11.7563 9.63709 11.6659L7.86151 10.1116L2.21913 16.4254C2.55733 16.6376 2.95369 16.7647 3.38235 16.7647H16.6177C17.0463 16.7647 17.4429 16.6376 17.781 16.4254L12.1381 10.1116ZM1.52014 4.56356C1.30577 4.9038 1.17651 5.30347 1.17651 5.7354V14.5588C1.17651 14.9457 1.28482 15.3043 1.4598 15.6199L7.03104 9.3846L1.52014 4.56356Z" fill="black"/>
</g>
</svg>
