<svg width="143" height="38" viewBox="0 0 143 38" fill="none" xmlns="http://www.w3.org/2000/svg">
<path d="M1.16625 38V5.488L0.52625 0.303997H28.8783C31.6089 0.303997 33.7423 0.666664 35.2783 1.392C36.8569 2.11733 38.0089 3.07733 38.7343 4.272C39.5023 5.424 39.9929 6.66133 40.2063 7.984C40.4196 9.30667 40.5263 10.5653 40.5263 11.76V15.536C40.5263 16.5173 40.3769 17.6267 40.0783 18.864C39.7796 20.0587 39.2249 21.232 38.4143 22.384C37.6036 23.4933 36.4303 24.432 34.8943 25.2C33.3583 25.9253 31.3529 26.288 28.8783 26.288H22.3503C19.6623 26.288 17.1449 26.224 14.7983 26.096C12.4943 25.968 10.7663 25.8613 9.61425 25.776V38H1.16625ZM9.61425 20.144H27.0223C28.9423 20.144 30.2649 19.6747 30.9903 18.736C31.7156 17.7973 32.0783 16.6667 32.0783 15.344V11.312C32.0783 9.94666 31.7156 8.79467 30.9903 7.856C30.2649 6.91733 28.9636 6.448 27.0863 6.448H9.61425V20.144ZM60.5358 38C57.5491 38 55.2024 37.5733 53.4958 36.72C51.7891 35.8667 50.5731 34.5867 49.8478 32.88C49.1651 31.1733 48.8238 29.0613 48.8238 26.544V11.76C48.8238 9.28533 49.1651 7.216 49.8478 5.552C50.5304 3.84533 51.7251 2.56533 53.4318 1.712C55.1384 0.815999 57.5064 0.368 60.5358 0.368H79.2238C82.2104 0.368 84.5358 0.815999 86.1998 1.712C87.9064 2.56533 89.1011 3.84533 89.7838 5.552C90.5091 7.216 90.8718 9.28533 90.8718 11.76V26.544C90.8718 30.2987 90.0398 33.1573 88.3758 35.12C86.7118 37.04 83.6611 38 79.2238 38H60.5358ZM62.3918 31.856H77.4318C79.0104 31.856 80.2264 31.4507 81.0798 30.64C81.9758 29.8293 82.4238 28.72 82.4238 27.312V10.992C82.4238 9.75466 81.9758 8.70933 81.0798 7.856C80.1838 6.96 78.9678 6.512 77.4318 6.512H62.3918C60.8558 6.512 59.6184 6.91733 58.6798 7.728C57.7411 8.53867 57.2718 9.62667 57.2718 10.992V27.312C57.2718 28.7627 57.7198 29.8933 58.6158 30.704C59.5544 31.472 60.8131 31.856 62.3918 31.856ZM100.464 38V0.368H108.912V15.984H134V0.368H142.448V38H134V22.128H108.912V38H100.464Z" fill="black"/>
</svg>
