<svg width="26" height="25" viewBox="0 0 26 25" fill="none" xmlns="http://www.w3.org/2000/svg">
<g id="Icon">
<path id="Vector" d="M17.4906 14.258C16.9846 13.7585 16.353 13.7585 15.8502 14.258C15.4667 14.6383 15.0832 15.0186 14.7062 15.4053C14.6031 15.5116 14.516 15.5342 14.3904 15.4633C14.1422 15.3279 13.878 15.2184 13.6395 15.0701C12.5277 14.3708 11.5963 13.4717 10.7713 12.4598C10.362 11.957 9.99787 11.4188 9.74328 10.813C9.69172 10.6905 9.70138 10.6099 9.80129 10.51C10.1848 10.1394 10.5586 9.75916 10.9357 9.37888C11.461 8.85037 11.461 8.23161 10.9324 7.69987C10.6327 7.39694 10.333 7.10046 10.0333 6.79753C9.72394 6.48815 9.41779 6.17555 9.10519 5.8694C8.59923 5.37633 7.96759 5.37633 7.46485 5.87262C7.07813 6.2529 6.70753 6.64284 6.31436 7.01667C5.9502 7.36149 5.76651 7.78366 5.72784 8.27673C5.66661 9.07918 5.86319 9.8365 6.14034 10.5745C6.70753 12.102 7.5712 13.4588 8.61857 14.7027C10.0333 16.385 11.722 17.7159 13.6975 18.6763C14.5869 19.1081 15.5086 19.44 16.5109 19.4948C17.2005 19.5335 17.7999 19.3595 18.2801 18.8213C18.6088 18.4539 18.9794 18.1188 19.3275 17.7675C19.8431 17.2454 19.8463 16.6138 19.3339 16.0981C18.7216 15.4826 18.1061 14.8703 17.4906 14.258Z" fill="black"/>
</g>
</svg>
