<svg width="19" height="19" viewBox="0 0 19 19" fill="none" xmlns="http://www.w3.org/2000/svg">
<g id="Logo" clip-path="url(#clip0_1_2218)">
<g id="Artboard">
<path id="Oval" d="M9.50006 18.6305C14.5427 18.6305 18.6305 14.5427 18.6305 9.50006C18.6305 4.45746 14.5427 0.369629 9.50006 0.369629C4.45746 0.369629 0.369629 4.45746 0.369629 9.50006C0.369629 14.5427 4.45746 18.6305 9.50006 18.6305Z" fill="url(#paint0_linear_1_2218)"/>
<path id="Path" fill-rule="evenodd" clip-rule="evenodd" d="M4.50269 9.40374C7.1644 8.24408 8.93929 7.47956 9.82736 7.11018C12.363 6.05553 12.8899 5.87232 13.2333 5.86628C13.3088 5.86494 13.4777 5.88366 13.5871 5.97243C13.6794 6.04738 13.7049 6.14863 13.717 6.21969C13.7292 6.29076 13.7443 6.45264 13.7323 6.57913C13.5949 8.02287 13.0003 11.5264 12.6979 13.1434C12.5699 13.8277 12.3179 14.0571 12.0739 14.0795C11.5437 14.1283 11.141 13.7291 10.6275 13.3925C9.82388 12.8657 9.3699 12.5378 8.58987 12.0238C7.68841 11.4297 8.27279 11.1032 8.78653 10.5696C8.92098 10.43 11.2571 8.30507 11.3024 8.1123C11.308 8.0882 11.3133 7.99833 11.2599 7.95088C11.2065 7.90343 11.1277 7.91965 11.0708 7.93256C10.9902 7.95085 9.70648 8.79937 7.21957 10.4781C6.85518 10.7283 6.52512 10.8502 6.22941 10.8439C5.9034 10.8368 5.2763 10.6595 4.81012 10.508C4.23833 10.3221 3.78387 10.2238 3.82345 9.90819C3.84406 9.74377 4.07047 9.57562 4.50269 9.40374Z" fill="white"/>
</g>
</g>
<defs>
<linearGradient id="paint0_linear_1_2218" x1="9.50006" y1="0.369629" x2="9.50006" y2="18.4951" gradientUnits="userSpaceOnUse">
<stop stop-color="#2AABEE"/>
<stop offset="1" stop-color="#229ED9"/>
</linearGradient>
<clipPath id="clip0_1_2218">
<rect width="18.2609" height="18.2609" fill="white" transform="translate(0.369629 0.369629)"/>
</clipPath>
</defs>
</svg>
