<svg width="74" height="76" viewBox="0 0 74 76" fill="none" xmlns="http://www.w3.org/2000/svg">
<g id="Group 96">
<path id="Vector 6" d="M45.0825 55.3201V56.5701C45.5994 56.5701 46.063 56.252 46.2489 55.7697L45.0825 55.3201ZM33.5691 55.3201H32.3191C32.3191 56.0104 32.8788 56.5701 33.5691 56.5701V55.3201ZM33.5691 52.1608H34.8191C34.8191 51.8662 34.7151 51.5811 34.5254 51.3557L33.5691 52.1608ZM28.1002 41.8211L29.2505 41.3318C29.2033 41.221 29.1404 41.1175 29.0636 41.0246L28.1002 41.8211ZM32.2739 37.0821L31.3505 37.9248C31.6984 38.3059 32.2446 38.4341 32.7257 38.2476C33.2068 38.0611 33.5239 37.5981 33.5239 37.0821H32.2739ZM37.6708 34.0664H36.4208C36.4208 34.5717 36.725 35.0273 37.1918 35.221C37.6586 35.4146 38.196 35.3082 38.5537 34.9512L37.6708 34.0664ZM45.0825 36.0769H43.8325C43.8325 36.5468 44.0961 36.977 44.5147 37.1905C44.9334 37.4039 45.4364 37.3646 45.8167 37.0885L45.0825 36.0769ZM47.9609 47.8526L49.1272 48.3022C49.1725 48.1848 49.1997 48.0614 49.2081 47.9359L47.9609 47.8526ZM45.0825 54.0701H33.5691V56.5701H45.0825V54.0701ZM34.8191 55.3201V52.1608H32.3191V55.3201H34.8191ZM34.5254 51.3557C33.6234 50.2843 32.5644 48.4124 31.5763 46.4253C30.6033 44.4688 29.7511 42.5087 29.2505 41.3318L26.95 42.3104C27.4572 43.5029 28.332 45.5159 29.3378 47.5385C30.3284 49.5306 31.5 51.6438 32.6128 52.9658L34.5254 51.3557ZM29.0636 41.0246C27.9734 39.7059 27.2663 38.335 26.9136 37.1654C26.5422 35.9341 26.6236 35.1444 26.7769 34.8308C26.8312 34.7197 26.8643 34.721 26.8655 34.7206C26.8949 34.7109 27.0635 34.6704 27.4502 34.8038C28.2564 35.0818 29.5588 35.9614 31.3505 37.9248L33.1972 36.2395C31.3193 34.1818 29.6715 32.9253 28.2651 32.4403C27.5455 32.1922 26.7921 32.1136 26.0862 32.3451C25.3521 32.586 24.8365 33.1078 24.531 33.7328C23.9647 34.891 24.082 36.435 24.5201 37.8873C24.9767 39.4014 25.8526 41.0642 27.1368 42.6176L29.0636 41.0246ZM33.5239 37.0821V24.4448H31.0239V37.0821H33.5239ZM33.5239 24.4448C33.5239 22.7781 34.5107 22.1655 35.0139 22.1487C35.25 22.1409 35.5419 22.2306 35.8195 22.6091C36.1182 23.0164 36.4208 23.8034 36.4208 25.1628H38.9208C38.9208 23.4705 38.5488 22.1034 37.8355 21.1307C37.1011 20.1292 36.0439 19.6131 34.9308 19.6501C32.7355 19.7231 31.0239 21.8032 31.0239 24.4448H33.5239ZM36.4208 25.1628V34.0664H38.9208V25.1628H36.4208ZM38.5537 34.9512C38.8465 34.659 39.1732 34.3562 39.4922 34.1085C39.831 33.8453 40.0746 33.713 40.206 33.6715C40.263 33.6535 40.2263 33.6767 40.1276 33.662C40.0027 33.6434 39.8723 33.5774 39.7825 33.4804C39.7101 33.4022 39.7214 33.3658 39.7483 33.4699C39.7747 33.5723 39.8028 33.7601 39.8028 34.0664H42.3028C42.3028 33.2543 42.1747 32.3844 41.6171 31.7821C40.9331 31.0432 40.0318 31.1048 39.4531 31.2876C38.8949 31.4639 38.3709 31.8139 37.9586 32.1341C37.5265 32.4697 37.1187 32.8514 36.7879 33.1815L38.5537 34.9512ZM39.8028 34.0664C39.8028 34.5709 39.8565 35.1911 40.1877 35.6852C40.3816 35.9744 40.6691 36.2172 41.0449 36.3371C41.3978 36.4496 41.7231 36.4202 41.9577 36.3672C42.3863 36.2705 42.7715 36.032 43.0115 35.8752C43.2328 35.7306 43.6027 35.465 43.7685 35.3528C44.0088 35.19 44.1627 35.1038 44.2589 35.0666C44.368 35.0243 44.2045 35.1207 43.9499 35.0088C43.6731 34.8871 43.6602 34.6877 43.7162 34.867C43.7716 35.0444 43.8325 35.4109 43.8325 36.0769H46.3325C46.3325 35.3068 46.2675 34.6501 46.1026 34.1218C45.9382 33.5954 45.6105 33.0078 44.9559 32.7201C44.3235 32.4422 43.7193 32.5946 43.3561 32.7353C42.9801 32.8809 42.6303 33.1043 42.3668 33.2826C42.0289 33.5114 41.8951 33.6183 41.6442 33.7823C41.412 33.9339 41.3565 33.9401 41.4073 33.9286C41.4529 33.9183 41.6051 33.8917 41.8045 33.9553C42.0269 34.0262 42.1805 34.1682 42.2642 34.2931C42.3751 34.4585 42.3028 34.4953 42.3028 34.0664H39.8028ZM45.8167 37.0885C46.0275 36.9356 46.2461 36.8075 46.4373 36.7319C46.6444 36.65 46.7044 36.6744 46.6605 36.6652C46.6261 36.658 46.5817 36.6392 46.5447 36.6095C46.5106 36.5821 46.5168 36.5726 46.5429 36.6243C46.6057 36.7493 46.7109 37.0858 46.7109 37.8001H49.2109C49.2109 36.902 49.0882 36.1211 48.7763 35.5009C48.4364 34.8253 47.8791 34.3666 47.1744 34.2186C46.5429 34.086 45.9493 34.2364 45.5178 34.4071C45.0703 34.5841 44.6652 34.8352 44.3484 35.0652L45.8167 37.0885ZM46.7109 37.8001C46.7109 41.0701 47.0714 42.4155 46.7137 47.7693L49.2081 47.9359C49.57 42.5189 49.2109 40.705 49.2109 37.8001H46.7109ZM46.7945 47.403L43.9162 54.8705L46.2489 55.7697L49.1272 48.3022L46.7945 47.403Z" fill="black"/>
<circle id="Ellipse 8" cx="36.9843" cy="9.98677" r="7.98677" stroke="black" stroke-width="2.5"/>
<circle id="Ellipse 9" cx="37.8841" cy="66.4566" r="7.98677" stroke="black" stroke-width="2.5"/>
<circle id="Ellipse 10" cx="9.98677" cy="37.5467" r="7.98677" stroke="black" stroke-width="2.5"/>
<circle id="Ellipse 11" cx="64.5443" cy="37.0968" r="7.98677" stroke="black" stroke-width="2.5"/>
<circle id="Ellipse 12" cx="17.5236" cy="57.9074" r="7.98677" stroke="black" stroke-width="2.5"/>
<circle id="Ellipse 13" cx="56.7825" cy="17.4112" r="7.98677" stroke="black" stroke-width="2.5"/>
<circle id="Ellipse 14" cx="17.4111" cy="17.861" r="7.98677" stroke="black" stroke-width="2.5"/>
<circle id="Ellipse 15" cx="58.6949" cy="58.0198" r="7.98677" stroke="black" stroke-width="2.5"/>
</g>
</svg>
