<svg width="73" height="68" viewBox="0 0 73 68" fill="none" xmlns="http://www.w3.org/2000/svg">
<g id="Group 98">
<path id="Ellipse 4" d="M33.3534 33.5341C33.3534 42.365 26.2184 49.5158 17.4267 49.5158C8.63509 49.5158 1.5 42.365 1.5 33.5341C1.5 24.7032 8.63509 17.5524 17.4267 17.5524C26.2184 17.5524 33.3534 24.7032 33.3534 33.5341Z" stroke="black" stroke-width="3"/>
<path id="Ellipse 5" d="M69.0177 17.4267C69.0177 26.2139 61.8467 33.3534 52.981 33.3534C44.1153 33.3534 36.9443 26.2139 36.9443 17.4267C36.9443 8.63952 44.1153 1.5 52.981 1.5C61.8467 1.5 69.0177 8.63952 69.0177 17.4267Z" stroke="black" stroke-width="3"/>
<path id="Vector 4" d="M11.1736 58.8221L71.315 31.7749" stroke="black" stroke-width="3" stroke-linecap="round"/>
<path id="Polygon 3" d="M31.0386 60.703L41.794 49.7485L52.5493 60.703H31.0386Z" stroke="black" stroke-width="3"/>
<g id="Vector">
<path d="M54.051 8.46606C55.3744 8.46606 56.5199 8.68771 57.4876 9.13102C58.4695 9.57432 59.2237 10.2035 59.7502 11.0186C60.2767 11.8337 60.54 12.799 60.54 13.9144C60.54 15.0155 60.2767 15.9807 59.7502 16.8101C59.2237 17.6252 58.4695 18.2544 57.4876 18.6977C56.5199 19.1267 55.3744 19.3412 54.051 19.3412H51.0413V23.4811H47.5833V8.46606H54.051ZM53.8589 16.5098C54.8977 16.5098 55.6875 16.2882 56.2282 15.8449C56.769 15.3873 57.0393 14.7438 57.0393 13.9144C57.0393 13.0707 56.769 12.4272 56.2282 11.9839C55.6875 11.5263 54.8977 11.2975 53.8589 11.2975H51.0413V16.5098H53.8589Z" fill="black"/>
<path d="M45.8116 16.6104H51.3147V19.1241H45.8116V16.6104Z" fill="black"/>
<path d="M45.8163 20.9404L56.7406 20.9811L56.7314 23.4948L45.807 23.454L45.8163 20.9404Z" fill="black"/>
<path d="M47.8127 9.23693H51.3147V26.4975H47.8127V9.23693Z" fill="black"/>
</g>
<g id="Vector_2">
<path d="M18.5379 24.7382C19.8613 24.7382 21.0069 24.9585 21.9745 25.3991C22.9564 25.8397 23.7106 26.4651 24.2372 27.2752C24.7637 28.0853 25.0269 29.0447 25.0269 30.1533C25.0269 31.2477 24.7637 32.2071 24.2372 33.0314C23.7106 33.8415 22.9564 34.4669 21.9745 34.9075C21.0069 35.3339 19.8613 35.5471 18.5379 35.5471H15.5282V39.6617H12.0702V24.7382H18.5379ZM18.3458 32.7329C19.3846 32.7329 20.1744 32.5126 20.7152 32.072C21.2559 31.6172 21.5263 30.9777 21.5263 30.1533C21.5263 29.3148 21.2559 28.6752 20.7152 28.2346C20.1744 27.7798 19.3846 27.5524 18.3458 27.5524H15.5282V32.7329H18.3458Z" fill="black"/>
<path d="M10.2985 32.8329H15.8017V35.3312H10.2985V32.8329Z" fill="black"/>
<path d="M10.3032 37.1365L21.2276 37.177L21.2183 39.6753L10.2939 39.6348L10.3032 37.1365Z" fill="black"/>
<path d="M12.2997 25.5044H15.8017V42.6597H12.2997V25.5044Z" fill="black"/>
</g>
</g>
</svg>
