<svg width="64" height="68" viewBox="0 0 64 68" fill="none" xmlns="http://www.w3.org/2000/svg">
<g id="Group 90">
<rect id="Rectangle 49" x="9.38879" y="7.81244" width="45.7947" height="51.6159" rx="2.5" stroke="black" stroke-width="3"/>
<rect id="Rectangle 50" x="1.5" y="1.5" width="61" height="65" rx="8.5" stroke="black" stroke-width="3"/>
<rect id="Rectangle 51" x="13.6255" y="22.6326" width="37.3214" height="6.19413" rx="3.09706" stroke="black" stroke-width="3" stroke-linejoin="round"/>
<path id="Vector 17" d="M16.5084 41.1675H31.1176" stroke="black" stroke-width="3" stroke-linecap="round" stroke-linejoin="round"/>
<path id="Vector 18" d="M16.5084 46.5195H31.1176" stroke="black" stroke-width="3" stroke-linecap="round" stroke-linejoin="round"/>
<path id="Vector 19" d="M16.5084 51.4595H31.1176" stroke="black" stroke-width="3" stroke-linecap="round" stroke-linejoin="round"/>
<path id="Vector 16" d="M32.5054 22.5049H46.165L41.6362 16.0553C40.5843 14.2988 38.1787 13.8597 37.1073 13.8597C35.9965 13.8597 34.2366 13.8597 32.5054 13.8597M32.5054 22.5049H18.8458L23.5208 16.0553C24.2025 15.3234 26.0335 13.8597 27.9035 13.8597C28.866 13.8597 30.6695 13.8597 32.5054 13.8597M32.5054 22.5049V13.8597" stroke="black" stroke-width="3" stroke-linecap="round" stroke-linejoin="round"/>
<ellipse id="Ellipse 18" cx="22.7903" cy="30.3517" rx="4.52885" ry="4.254" fill="white" stroke="black" stroke-width="3"/>
<ellipse id="Ellipse 19" cx="42.5127" cy="30.3517" rx="4.52885" ry="4.254" fill="white" stroke="black" stroke-width="3"/>
<path id="Vector 20" d="M37.9839 46.3821L42.0745 51.185L49.9634 41.9909" stroke="black" stroke-width="3" stroke-linecap="round" stroke-linejoin="round"/>
</g>
</svg>
