<svg width="53" height="79" viewBox="0 0 53 79" fill="none" xmlns="http://www.w3.org/2000/svg">
<g id="Group 97">
<rect id="Rectangle 48" x="1.5" y="1.5" width="49.2954" height="63.6649" rx="2.5" stroke="black" stroke-width="3" stroke-linejoin="round"/>
<path id="Vector 7" d="M12.2494 12.485H40.0461" stroke="black" stroke-width="3" stroke-linecap="round"/>
<path id="Vector 8" d="M12.2494 21.4364H40.0461" stroke="black" stroke-width="3" stroke-linecap="round"/>
<path id="Vector 9" d="M12.2494 30.6235H29.6812" stroke="black" stroke-width="3" stroke-linecap="round"/>
<path id="Vector 10" d="M12.2494 40.1638H22.8498" stroke="black" stroke-width="3" stroke-linecap="round"/>
<path id="Vector 11" d="M29.6812 76.7942V55.1222H42.4017V76.7942L36.0415 69.4917L29.6812 76.7942Z" fill="white" stroke="black" stroke-width="3" stroke-linecap="round" stroke-linejoin="round"/>
<path id="Star 1" d="M35.0489 41.0054C35.3569 40.3754 36.2548 40.3754 36.5627 41.0054C37.4706 42.8626 39.6853 43.6687 41.5746 42.8296C42.2155 42.5449 42.9033 43.1221 42.7343 43.8026C42.2359 45.809 43.4143 47.85 45.401 48.4216C46.075 48.6155 46.2309 49.4998 45.6639 49.9124C43.9925 51.1291 43.5833 53.45 44.7378 55.1649C45.1294 55.7467 44.6804 56.5243 43.9808 56.476C41.9184 56.3336 40.1131 57.8485 39.8951 59.9043C39.8212 60.6016 38.9774 60.9087 38.4726 60.4221C36.9842 58.9873 34.6274 58.9873 33.139 60.4221C32.6342 60.9087 31.7904 60.6016 31.7165 59.9043C31.4986 57.8485 29.6932 56.3336 27.6308 56.476C26.9312 56.5243 26.4822 55.7467 26.8739 55.1649C28.0283 53.45 27.6191 51.1291 25.9477 49.9124C25.3807 49.4998 25.5367 48.6155 26.2106 48.4216C28.1973 47.85 29.3757 45.809 28.8773 43.8026C28.7083 43.1221 29.3961 42.5449 30.037 42.8296C31.9263 43.6687 34.141 42.8626 35.0489 41.0054Z" fill="white" stroke="black" stroke-width="3" stroke-linejoin="round"/>
</g>
</svg>
