<svg width="73" height="63" viewBox="0 0 73 63" fill="none" xmlns="http://www.w3.org/2000/svg">
<g id="Group 95">
<g id="Group 88">
<path id="Vector 12" d="M29.3329 60.6738V53.9178H11.9233V60.6738" stroke="black" stroke-width="3" stroke-linecap="round" stroke-linejoin="round"/>
<path id="Vector 13" d="M26.7345 53.3981V46.3823C27.081 44.2169 26.7345 39.3665 22.577 37.2877L13.7423 28.7128C11.6635 28.0199 7.81784 27.9333 9.06509 33.1302L15.8211 39.6263" stroke="black" stroke-width="3" stroke-linecap="round"/>
<path id="Vector 14" d="M14.5218 53.658C15.0414 52.1855 15.1454 48.617 11.4036 46.1225L5.16734 39.8862C3.95473 38.8468 1.63345 35.6767 2.0492 31.3113V18.3191C2.0492 14.4214 7.66184 11.4592 9.32485 18.3191V25.3349" stroke="black" stroke-width="3" stroke-linecap="round"/>
</g>
<g id="Group 89">
<path id="Vector 12_2" d="M44.014 60.6241V53.8682H61.0299V60.6241" stroke="black" stroke-width="3" stroke-linecap="round" stroke-linejoin="round"/>
<path id="Vector 13_2" d="M46.5537 53.3485V46.3327C46.2151 44.1673 46.5537 39.3169 50.6172 37.2381L59.2522 28.6633C61.2839 27.9703 65.0426 27.8837 63.8236 33.0806L57.2204 39.5768" stroke="black" stroke-width="3" stroke-linecap="round"/>
<path id="Vector 14_2" d="M58.4903 53.6083C57.9823 52.1358 57.8808 48.5673 61.5379 46.0728L67.6332 39.8365C68.8184 38.7971 71.0871 35.627 70.6808 31.2616V18.2694C70.6808 14.3717 65.1951 11.4095 63.5697 18.2694V25.2852" stroke="black" stroke-width="3" stroke-linecap="round"/>
</g>
<g id="Union">
<mask id="path-7-inside-1_0_422" fill="white">
<path fill-rule="evenodd" clip-rule="evenodd" d="M42.418 18.0341C44.639 16.1593 46.0497 13.3547 46.0497 10.2206C46.0497 4.5759 41.4738 0 35.8291 0C30.1844 0 25.6085 4.5759 25.6085 10.2206C25.6085 13.3546 27.0192 16.1592 29.2402 18.0341C27.875 18.7273 26.6257 19.6329 25.5397 20.7188C24.1885 22.0701 23.1166 23.6742 22.3854 25.4396C21.6541 27.2051 21.2777 29.0973 21.2777 31.0082L35.829 31.0082H50.3803C50.3803 29.0973 50.004 27.2051 49.2727 25.4396C48.5414 23.6742 47.4696 22.0701 46.1184 20.7188C45.0324 19.6329 43.7831 18.7274 42.418 18.0341Z"/>
</mask>
<path d="M42.418 18.0341L40.4828 15.7417C39.7143 16.3904 39.322 17.3811 39.438 18.3801C39.554 19.3791 40.1628 20.2535 41.0595 20.7089L42.418 18.0341ZM29.2402 18.0341L30.5986 20.7089C31.4953 20.2535 32.1042 19.3791 32.2202 18.38C32.3362 17.381 31.9438 16.3904 31.1753 15.7416L29.2402 18.0341ZM25.5397 20.7188L23.4184 18.5975L23.4184 18.5975L25.5397 20.7188ZM22.3854 25.4396L19.6137 24.2916L19.6137 24.2916L22.3854 25.4396ZM21.2777 31.0082L18.2777 31.0082C18.2777 31.8038 18.5938 32.5669 19.1564 33.1295C19.719 33.6921 20.4821 34.0082 21.2777 34.0082L21.2777 31.0082ZM35.829 31.0082V28.0082V31.0082ZM50.3803 31.0082V34.0082C52.0372 34.0082 53.3803 32.665 53.3803 31.0082H50.3803ZM46.1184 20.7188L43.997 22.8402L43.997 22.8402L46.1184 20.7188ZM43.0497 10.2206C43.0497 12.4339 42.0575 14.4125 40.4828 15.7417L44.3531 20.3266C47.2205 17.9061 49.0497 14.2755 49.0497 10.2206H43.0497ZM35.8291 3C39.8169 3 43.0497 6.23276 43.0497 10.2206H49.0497C49.0497 2.91905 43.1306 -3 35.8291 -3V3ZM28.6085 10.2206C28.6085 6.23276 31.8413 3 35.8291 3V-3C28.5276 -3 22.6085 2.91905 22.6085 10.2206H28.6085ZM31.1753 15.7416C29.6007 14.4124 28.6085 12.4338 28.6085 10.2206H22.6085C22.6085 14.2754 24.4377 17.906 27.3051 20.3265L31.1753 15.7416ZM27.8818 15.3592C26.2352 16.1954 24.7282 17.2877 23.4184 18.5975L27.661 22.8402C28.5231 21.9781 29.5149 21.2592 30.5986 20.7089L27.8818 15.3592ZM23.4184 18.5975C21.7886 20.2273 20.4958 22.1622 19.6137 24.2916L25.157 26.5877C25.7375 25.1862 26.5884 23.9128 27.661 22.8402L23.4184 18.5975ZM19.6137 24.2916C18.7317 26.421 18.2777 28.7033 18.2777 31.0082L24.2777 31.0082C24.2777 29.4912 24.5765 27.9892 25.157 26.5877L19.6137 24.2916ZM21.2777 34.0082H35.829L35.829 28.0082L21.2777 28.0082L21.2777 34.0082ZM35.829 34.0082H50.3803V28.0082H35.829V34.0082ZM53.3803 31.0082C53.3803 28.7033 52.9264 26.421 52.0443 24.2916L46.501 26.5877C47.0815 27.9892 47.3803 29.4912 47.3803 31.0082H53.3803ZM52.0443 24.2916C51.1623 22.1622 49.8695 20.2273 48.2397 18.5975L43.997 22.8402C45.0697 23.9128 45.9205 25.1862 46.501 26.5877L52.0443 24.2916ZM48.2397 18.5975C46.9298 17.2877 45.4229 16.1955 43.7764 15.3593L41.0595 20.7089C42.1432 21.2593 43.135 21.9781 43.997 22.8402L48.2397 18.5975Z" fill="black" mask="url(#path-7-inside-1_0_422)"/>
</g>
</g>
</svg>
