<svg width="20" height="19" viewBox="0 0 20 19" fill="none" xmlns="http://www.w3.org/2000/svg">
<g id="Icon">
<mask id="mask0_3_2223" style="mask-type:luminance" maskUnits="userSpaceOnUse" x="0" y="0" width="20" height="19">
<path id="path28" fill-rule="evenodd" clip-rule="evenodd" d="M4.44428 0.950436C4.00829 0.964615 3.44639 0.995823 3.19099 1.04298C2.80113 1.11502 2.43297 1.22423 2.12679 1.367C1.76706 1.53473 1.44465 1.74874 1.16626 2.00306C0.887229 2.25786 0.652384 2.55311 0.468317 2.88273C0.312702 3.16136 0.193406 3.49616 0.114343 3.85083C0.0617572 4.08686 0.026979 4.60479 0.0112134 5.00626C0.00482008 5.17035 0.00153975 5.3827 0.00153975 5.48064L0 14.2877C0 14.3853 0.00324686 14.5977 0.00960668 14.762C0.0251046 15.1608 0.0592133 15.6749 0.110795 15.9086C0.189489 16.2653 0.308887 16.6021 0.464903 16.8823C0.648267 17.2114 0.882141 17.5063 1.1601 17.7611C1.43859 18.0163 1.76134 18.2312 2.12157 18.3996C2.42614 18.542 2.79206 18.6512 3.17968 18.7235C3.43765 18.7716 4.00378 18.8034 4.44257 18.8178C4.62185 18.8237 4.85398 18.8267 4.96103 18.8267L14.587 18.8281C14.6936 18.8281 14.9258 18.8252 15.1053 18.8193C15.5413 18.8051 16.1032 18.7739 16.3586 18.7268C16.7484 18.6547 17.1166 18.5455 17.4228 18.4028C17.7825 18.235 18.1049 18.021 18.3833 17.7667C18.6623 17.5119 18.8971 17.2167 19.0812 16.887C19.2368 16.6084 19.3562 16.2736 19.4352 15.9189C19.4878 15.6829 19.5226 15.1649 19.5383 14.7635C19.5448 14.5994 19.548 14.3871 19.548 14.2891L19.5496 5.48205C19.5496 5.38448 19.5463 5.17206 19.54 5.00782C19.5244 4.60896 19.4903 4.09485 19.4388 3.86118C19.3601 3.50449 19.2407 3.16764 19.0847 2.88751C18.9013 2.55835 18.6674 2.2634 18.3895 2.00866C18.111 1.75343 17.7882 1.53853 17.428 1.37012C17.1234 1.22775 16.7575 1.11857 16.3699 1.04626C16.1119 0.99815 15.5458 0.96633 15.107 0.951937C14.9277 0.946026 14.6956 0.943054 14.5885 0.943054L4.96257 0.941647C4.85593 0.941647 4.62376 0.944586 4.44428 0.950436Z" fill="white"/>
</mask>
<g mask="url(#mask0_3_2223)">
<g id="g34">
<path id="path42" d="M4.44428 0.950436C4.00829 0.964615 3.44639 0.995823 3.19099 1.04298C2.80113 1.11502 2.43297 1.22423 2.12679 1.367C1.76706 1.53473 1.44465 1.74874 1.16626 2.00306C0.887229 2.25786 0.652384 2.55311 0.468317 2.88273C0.312702 3.16136 0.193406 3.49616 0.114343 3.85083C0.0617572 4.08686 0.026979 4.60479 0.0112134 5.00626C0.00482008 5.17035 0.00153975 5.3827 0.00153975 5.48064L0 14.2877C0 14.3853 0.00324686 14.5977 0.00960668 14.762C0.0251046 15.1608 0.0592133 15.6749 0.110795 15.9086C0.189489 16.2653 0.308887 16.6021 0.464903 16.8823C0.648267 17.2114 0.882141 17.5063 1.1601 17.7611C1.43859 18.0163 1.76134 18.2312 2.12157 18.3996C2.42614 18.542 2.79206 18.6512 3.17968 18.7235C3.43765 18.7716 4.00378 18.8034 4.44257 18.8178C4.62185 18.8237 4.85398 18.8267 4.96103 18.8267L14.587 18.8281C14.6936 18.8281 14.9258 18.8252 15.1053 18.8193C15.5413 18.8051 16.1032 18.7739 16.3586 18.7268C16.7484 18.6547 17.1166 18.5455 17.4228 18.4028C17.7825 18.235 18.1049 18.021 18.3833 17.7667C18.6623 17.5119 18.8971 17.2167 19.0812 16.887C19.2368 16.6084 19.3562 16.2736 19.4352 15.9189C19.4878 15.6829 19.5226 15.1649 19.5383 14.7635C19.5448 14.5994 19.548 14.3871 19.548 14.2891L19.5496 5.48205C19.5496 5.38448 19.5463 5.17206 19.54 5.00782C19.5244 4.60896 19.4903 4.09485 19.4388 3.86118C19.3601 3.50449 19.2407 3.16764 19.0847 2.88751C18.9013 2.55835 18.6674 2.2634 18.3895 2.00866C18.111 1.75343 17.7882 1.53853 17.428 1.37012C17.1234 1.22775 16.7575 1.11857 16.3699 1.04626C16.1119 0.99815 15.5458 0.96633 15.107 0.951937C14.9277 0.946026 14.6956 0.943054 14.5885 0.943054L4.96257 0.941647C4.85593 0.941647 4.62376 0.944586 4.44428 0.950436Z" fill="url(#paint0_linear_3_2223)"/>
</g>
<path id="path54" fill-rule="evenodd" clip-rule="evenodd" d="M13.1638 11.0618C12.9897 10.9821 12.1336 10.5968 11.974 10.5437C11.8144 10.4905 11.6983 10.464 11.5822 10.6234C11.4661 10.7828 11.1325 11.1415 11.0309 11.2478C10.9293 11.3541 10.8278 11.3674 10.6536 11.2877C10.4795 11.208 9.91846 11.0398 9.25339 10.4972C8.73577 10.075 8.38632 9.55338 8.28473 9.39395C8.18317 9.23451 8.27391 9.14833 8.36111 9.06892C8.4394 8.9976 8.5352 8.88293 8.62227 8.78993C8.70933 8.69692 8.73835 8.63049 8.79639 8.52422C8.85443 8.41792 8.82541 8.32491 8.78186 8.24519C8.73835 8.16548 8.39013 7.38159 8.24503 7.06272C8.10371 6.75218 7.96014 6.7942 7.85326 6.78933C7.75181 6.78471 7.63562 6.78373 7.51954 6.78373C7.40346 6.78373 7.21484 6.8236 7.05521 6.98301C6.89561 7.14244 6.4458 7.52777 6.4458 8.31162C6.4458 9.0955 7.06973 9.8528 7.1568 9.9591C7.24386 10.0654 8.38461 11.674 10.1313 12.3639C10.5467 12.5279 10.8711 12.6259 11.1239 12.6994C11.5411 12.8205 11.9206 12.8035 12.2207 12.7624C12.5552 12.7167 13.2508 12.3771 13.3959 12.0051C13.541 11.6331 13.541 11.3143 13.4975 11.2478C13.454 11.1814 13.3379 11.1415 13.1638 11.0618ZM9.98674 15.0297H9.9844C8.94507 15.0293 7.92569 14.7739 7.03642 14.2912L6.8249 14.1764L4.63274 14.7024L5.21788 12.7475L5.08014 12.5471C4.50035 11.7036 4.19415 10.7287 4.19458 9.72772C4.19585 6.80681 6.79417 4.43044 9.98905 4.43044C11.5361 4.43099 12.9903 4.98277 14.0839 5.98409C15.1775 6.98545 15.7794 8.31648 15.7788 9.73201C15.7775 12.6531 13.1792 15.0297 9.98674 15.0297ZM14.9161 5.22286C13.6004 4.0181 11.8507 3.3543 9.98657 3.35362C6.14558 3.35362 3.01946 6.2127 3.01792 9.72698C3.01741 10.8503 3.33828 11.9469 3.94809 12.9134L2.95947 16.2163L6.65366 15.33C7.6715 15.8378 8.81747 16.1054 9.9838 16.1058H9.98664H9.98667C13.8273 16.1058 16.9537 13.2464 16.9553 9.73206C16.956 8.02899 16.2318 6.4276 14.9161 5.22286Z" fill="white"/>
</g>
</g>
<defs>
<linearGradient id="paint0_linear_3_2223" x1="-2.09745e-05" y1="18.8281" x2="-2.09745e-05" y2="0.941626" gradientUnits="userSpaceOnUse">
<stop stop-color="#25CF43"/>
<stop offset="1" stop-color="#61FD7D"/>
</linearGradient>
</defs>
</svg>
